<svg width="93" height="93" viewBox="0 0 93 93" fill="none" xmlns="http://www.w3.org/2000/svg">
<path d="M81.3773 93H11.6227C5.19721 93 0 87.7936 0 81.3773V11.6227C0 5.19721 5.20638 0 11.6227 0H81.3773C87.7936 0 93 5.20638 93 11.6227V81.3773C93 87.7936 87.7936 93 81.3773 93Z" fill="#3D5A98"/>
<path d="M64.1724 93V56.9861H76.2626L78.0683 42.9527H64.1724V33.9882C64.1724 29.9276 65.2998 27.1502 71.1295 27.1502H78.5633V14.5926C77.28 14.4184 72.8711 14.0334 67.738 14.0334C57.0228 14.0334 49.6807 20.5781 49.6807 32.5858V42.9344H37.563V56.9678H49.6807V92.9817H64.1724V93Z" fill="white"/>
</svg>
