<svg width="94" height="93" viewBox="0 0 94 93" fill="none" xmlns="http://www.w3.org/2000/svg">
<path d="M81.3853 93H11.6238C5.20689 93 0 87.7931 0 81.3761V11.6239C0 5.19773 5.20689 0 11.6238 0H81.3853C87.8023 0 93.0092 5.2069 93.0092 11.6239V81.3761C93.0092 87.7931 87.8023 93 81.3853 93Z" fill="#1DA1F2"/>
<path d="M35.724 70.1189C57.6608 70.1189 69.6605 51.9406 69.6605 36.1824C69.6605 35.6691 69.6513 35.1557 69.6238 34.6424C71.9523 32.9556 73.9782 30.8564 75.5733 28.4637C73.4373 29.4171 71.1364 30.0496 68.7255 30.343C71.1914 28.8671 73.0798 26.5295 73.969 23.7427C71.6681 25.1086 69.1105 26.0986 66.397 26.6395C64.2244 24.3202 61.1259 22.8718 57.6883 22.8718C51.0972 22.8718 45.7619 28.2162 45.7619 34.7982C45.7619 35.7332 45.8628 36.6408 46.0736 37.5208C36.164 37.0258 27.3728 32.2772 21.4875 25.0628C20.4608 26.8228 19.8741 28.8763 19.8741 31.058C19.8741 35.1924 21.9825 38.85 25.1818 40.986C23.2293 40.9218 21.3867 40.3901 19.7824 39.4917C19.7824 39.5467 19.7824 39.5926 19.7824 39.6476C19.7824 45.4228 23.8984 50.2447 29.3528 51.3448C28.3536 51.6198 27.2994 51.7665 26.2085 51.7665C25.4385 51.7665 24.696 51.6931 23.9626 51.5556C25.4844 56.295 29.8845 59.7418 35.1006 59.8427C31.0213 63.042 25.8785 64.9487 20.2866 64.9487C19.3241 64.9487 18.3707 64.8937 17.4448 64.7837C22.7159 68.148 28.9862 70.1189 35.724 70.1189Z" fill="white"/>
</svg>
