<svg width="93" height="93" viewBox="0 0 93 93" fill="none" xmlns="http://www.w3.org/2000/svg">
<path d="M81.3773 93H11.6227C5.20639 93 0 87.7936 0 81.3773V11.6319C0 5.20639 5.20639 0 11.6227 0H81.3773C87.8028 0 93 5.20639 93 11.6319V81.3773C93 87.7936 87.7936 93 81.3773 93Z" fill="#25D366"/>
<path fill-rule="evenodd" clip-rule="evenodd" d="M69.9656 23.053C63.7051 16.7833 55.3731 13.3276 46.5002 13.3276C28.2229 13.3276 13.337 28.2044 13.337 46.4817C13.337 52.3297 14.8586 58.0311 17.7643 63.0541L13.062 80.2407L30.6427 75.6301C35.4916 78.27 40.9455 79.6633 46.4911 79.6633H46.5002C64.7776 79.6633 79.6634 64.7866 79.6726 46.5092C79.6726 37.6547 76.2261 29.3226 69.9656 23.053ZM46.5002 74.0719H46.4911C41.5413 74.0719 36.6924 72.7428 32.4576 70.2313L31.4494 69.6355L21.0183 72.367L23.8048 62.2017L23.1448 61.1568C20.3858 56.7662 18.9284 51.6973 18.9284 46.4909C18.9375 31.2934 31.3027 18.9374 46.5094 18.9374C53.8698 18.9374 60.7903 21.8064 65.9967 27.0219C71.2031 32.2283 74.0629 39.1579 74.0629 46.5184C74.0629 61.7067 61.6977 74.0719 46.5002 74.0719Z" fill="white"/>
<path fill-rule="evenodd" clip-rule="evenodd" d="M61.6245 53.4297C60.7995 53.0172 56.7205 51.0098 55.9598 50.7348C55.199 50.4598 54.649 50.3223 54.099 51.1473C53.5491 51.9814 51.9541 53.8422 51.4775 54.3921C50.9917 54.9421 50.515 55.0154 49.6809 54.5938C48.856 54.1813 46.1794 53.3013 43.0171 50.4873C40.5514 48.2874 38.8923 45.5743 38.4065 44.7493C37.9207 43.9243 38.3515 43.4752 38.7732 43.0536C39.149 42.6869 39.5981 42.0911 40.0198 41.6053C40.4323 41.1195 40.5697 40.7803 40.8447 40.2212C41.1197 39.6712 40.9822 39.1854 40.7714 38.773C40.5606 38.3605 38.9107 34.2815 38.214 32.6225C37.5357 31.0092 36.8574 31.22 36.3441 31.2017C35.8583 31.1742 35.3084 31.1742 34.7584 31.1742C34.2084 31.1742 33.3101 31.385 32.5493 32.21C31.7886 33.0441 29.6528 35.0423 29.6528 39.1213C29.6528 43.2002 32.6227 47.1417 33.0352 47.6917C33.4476 48.2416 38.8832 56.6103 47.1969 60.2035C49.1768 61.0559 50.7167 61.5692 51.9266 61.945C53.9157 62.5775 55.7214 62.4859 57.1422 62.275C58.7371 62.0367 62.0461 60.2676 62.7336 58.3336C63.421 56.3995 63.421 54.7404 63.2194 54.3921C63.0085 54.053 62.4494 53.8421 61.6245 53.4297Z" fill="white"/>
</svg>
